# xmcd
#
# Track frame offsets:
#	150
#	44330
#	55474
#	61044
#	72558
#	76742
#	90180
#	134952
#	161856
#	166095
#	177909
#	191985
#	212558
#
# Disc length: 3090 seconds
#
# Revision: 2
# Processed by: cddbd v1.5.2PL0 Copyright (c) Steve Scherf et al.
# Submitted via: EasyCDDAExtractor 2010.6.0.0
#
DISCID=b80c100d
DTITLE=Vladimir Vysotsky - 17 Райские яблоки
DYEAR=2002
DGENRE=Vocal
TTITLE0=Лошадей двадцать тысяч в машины зажаты...
TTITLE1=Тот, который не стрелял
TTITLE2=Давайте после драки(стихи Б. Слуцкого)
TTITLE3=Одна научная загадка или почему аборигены съели Кука
TTITLE4=Зарисовка о Ленинграде
TTITLE5=Письмо к другу, или Зарисовка о Париже
TTITLE6=Письмо в редакцию телепередачи "Очевидное-невероятное"
TTITLE7=Баллада о Любви
TTITLE8=Серенада Соловья-разбойника
TTITLE9=Куплеты нечистой силы
TTITLE10=Про речку Вачу и попутчицу Валю
TTITLE11=Райские яблоки
TTITLE12=Ïîæàðû
EXTD=
EXTT0=
EXTT1=
EXTT2=
EXTT3=
EXTT4=
EXTT5=
EXTT6=
EXTT7=
EXTT8=
EXTT9=
EXTT10=
EXTT11=
EXTT12=
PLAYORDER=
